<svg fill="#000000" viewBox="-2.4 -2.4 28.80 28.80" id="clipboard-3" data-name="Flat Color" xmlns="http://www.w3.org/2000/svg" class="icon flat-color"><g id="SVGRepo_bgCarrier" stroke-width="0"></g><g id="SVGRepo_tracerCarrier" stroke-linecap="round" stroke-linejoin="round"></g><g id="SVGRepo_iconCarrier"><rect id="primary" x="5" y="5" width="14" height="17" rx="2" style="fill: #000"></rect><path id="secondary" d="M15,18H9a1,1,0,0,1,0-2h6a1,1,0,0,1,0,2Zm1-5a1,1,0,0,0-1-1H9a1,1,0,0,0,0,2h6A1,1,0,0,0,16,13ZM14,4a2,2,0,0,0-4,0H9A1,1,0,0,0,8,5V7A1,1,0,0,0,9,8h6a1,1,0,0,0,1-1V5a1,1,0,0,0-1-1Z" style="fill: orange"></path></g></svg>